<svg version="1.1" id="Layer_1" xmlns="http://www.w3.org/2000/svg" xmlns:xlink="http://www.w3.org/1999/xlink" x="0px" y="0px"
	 width="100%" viewBox="0 0 1388 303" enable-background="new 0 0 1388 303" xml:space="preserve">
<path fill="none" opacity="1.000000" stroke="#000000" stroke-linecap="round" stroke-linejoin="round" stroke-width="2.000000"
	d="
M604.500000,226.500000 
	C604.500000,220.000000 604.500000,213.500000 604.500000,206.750000 
	C443.000336,206.750000 281.500183,206.750000 119.750000,206.750000 
	C119.750000,212.991455 119.750000,219.495728 119.750000,226.500000 
	C280.499664,226.500000 441.499817,226.500000 602.500000,226.500000 
"/>
<path fill="none" opacity="1.000000" stroke="#000000" stroke-linecap="round" stroke-linejoin="round" stroke-width="2.000000"
	d="
M604.500000,237.500000 
	C604.500000,244.000000 604.500000,250.500000 604.500000,257.250000 
	C443.000336,257.250000 281.500183,257.250000 119.500000,257.250000 
	C119.500000,251.509262 119.500000,245.504623 119.500000,239.500000 
"/>
<path fill="none" opacity="1.000000" stroke="#000000" stroke-linecap="round" stroke-linejoin="round" stroke-width="2.000000"
	d="
M602.500000,237.500000 
	C441.500000,237.500000 280.500000,237.500000 119.500000,237.500000 
"/>
<path fill="none" opacity="1.000000" stroke="#000000" stroke-linecap="round" stroke-linejoin="round" stroke-width="2.000000"
	d="
M1138.500000,88.500000 
	C1051.833374,88.500000 965.166687,88.500000 878.500000,88.500000 
"/>
<path fill="none" opacity="1.000000" stroke="#000000" stroke-linecap="round" stroke-linejoin="round" stroke-width="2.000000"
	d="
M1136.500000,68.500000 
	C1051.166626,68.500000 965.833313,68.500000 880.500000,68.500000 
"/>
<path fill="none" opacity="1.000000" stroke="#000000" stroke-linecap="round" stroke-linejoin="round" stroke-width="3.000000"
	d="
M13.500000,21.500000 
	C10.663598,18.311855 8.571469,20.333620 6.241878,22.207745 
	C7.334557,24.522236 9.240798,25.253189 11.020067,25.948660 
	C12.642014,26.582638 12.697216,27.733807 12.466023,28.993765 
	C12.235717,30.248888 11.388606,31.236105 10.009027,30.955605 
	C8.471735,30.643034 6.205500,32.383499 5.500000,29.500000 
"/>
<path fill="none" opacity="1.000000" stroke="#000000" stroke-linecap="round" stroke-linejoin="round" stroke-width="2.000000"
	d="
M1140.500000,86.500000 
	C1140.500000,81.333336 1140.495850,76.166656 1140.502808,71.000000 
	C1140.504639,69.617332 1140.842285,67.992790 1138.500000,68.500000 
"/>
<path fill="none" opacity="1.000000" stroke="#000000" stroke-linecap="round" stroke-linejoin="round" stroke-width="2.000000"
	d="
M1237.500000,74.500000 
	C1237.500000,76.333336 1237.502197,78.166664 1237.499390,80.000000 
	C1237.496704,81.672417 1238.327637,82.501259 1240.000000,82.501259 
	C1241.672363,82.501259 1242.503296,81.672417 1242.500610,80.000000 
	C1242.497803,78.166664 1242.500000,76.333336 1242.500000,74.500000 
"/>
<path fill="none" opacity="1.000000" stroke="#000000" stroke-linecap="round" stroke-linejoin="round" stroke-width="3.000000"
	d="
M132.500000,22.500000 
	C137.083435,26.671635 138.156525,31.970398 134.968994,34.967010 
	C134.703552,35.216530 134.000000,35.000000 133.500000,35.000000 
"/>
<path fill="none" opacity="1.000000" stroke="#000000" stroke-linecap="round" stroke-linejoin="round" stroke-width="3.000000"
	d="
M159.500000,26.500000 
	C155.743118,24.595936 155.591019,24.563189 154.508316,26.006239 
	C153.596725,27.221226 152.672760,28.754299 154.053589,29.937460 
	C155.791565,31.426672 157.893021,32.156609 159.500000,29.500000 
"/>
<path fill="none" opacity="1.000000" stroke="#000000" stroke-linecap="round" stroke-linejoin="round" stroke-width="3.000000"
	d="
M85.500000,26.500000 
	C83.914070,25.525969 82.369522,23.738832 80.515236,26.012428 
	C79.557297,27.186981 78.672768,28.754295 80.053589,29.937462 
	C81.791573,31.426670 83.893028,32.156609 85.500000,29.500000 
"/>
<path fill="none" opacity="1.000000" stroke="#000000" stroke-linecap="round" stroke-linejoin="round" stroke-width="4.000000"
	d="
M114.500000,30.500000 
	C114.500000,30.166666 114.500000,29.833334 114.500000,29.500000 
	C114.500000,23.027077 114.096695,22.685820 107.500000,24.107779 
	C107.500000,26.141859 107.500000,28.320930 107.500000,30.500000 
"/>
<path fill="none" opacity="1.000000" stroke="#000000" stroke-linecap="round" stroke-linejoin="round" stroke-width="4.000000"
	d="
M29.500000,30.500000 
	C29.500000,29.500000 29.516134,28.499697 29.497293,27.500051 
	C29.398905,22.279589 28.972980,22.049009 24.000000,24.500000 
"/>
<path fill="none" opacity="1.000000" stroke="#000000" stroke-linecap="round" stroke-linejoin="round" stroke-width="3.000000"
	d="
M145.500000,30.000000 
	C144.924301,28.696989 146.152832,27.977633 146.554077,27.022720 
	C147.009506,25.938845 147.879196,25.029036 148.652603,23.923788 
	C147.024887,22.708923 145.227112,23.031126 143.500000,23.000000 
"/>
<path fill="none" opacity="1.000000" stroke="#000000" stroke-linecap="round" stroke-linejoin="round" stroke-width="4.000000"
	d="
M129.500000,19.500000 
	C129.500000,23.166666 129.500000,26.833334 129.500000,30.500000 
"/>
<path fill="none" opacity="1.000000" stroke="#000000" stroke-linecap="round" stroke-linejoin="round" stroke-width="4.000000"
	d="
M74.500000,19.500000 
	C74.500000,23.166666 74.500000,26.833334 74.500000,30.500000 
"/>
<path fill="none" opacity="1.000000" stroke="#000000" stroke-linecap="round" stroke-linejoin="round" stroke-width="3.000000"
	d="
M65.500000,20.000000 
	C63.816666,20.000000 62.133335,20.000000 60.000000,20.000000 
	C60.000000,24.151026 60.000000,27.825512 60.000000,31.500000 
"/>
<path fill="none" opacity="1.000000" stroke="#000000" stroke-linecap="round" stroke-linejoin="round" stroke-width="4.000000"
	d="
M54.000000,19.500000 
	C52.994762,22.453413 53.756432,25.506590 53.485485,28.498686 
	C53.269470,30.884119 54.771500,31.040865 56.500000,31.000000 
"/>
<path fill="none" opacity="1.000000" stroke="#000000" stroke-linecap="round" stroke-linejoin="round" stroke-width="3.000000"
	d="
M124.500000,30.500002 
	C124.166664,29.666668 123.433502,28.763439 123.564972,28.011360 
	C124.410263,23.175934 124.472450,23.186806 119.500000,23.000000 
"/>
<path fill="none" opacity="1.000000" stroke="#000000" stroke-linecap="round" stroke-linejoin="round" stroke-width="3.000000"
	d="
M39.500000,30.500000 
	C39.166664,29.666668 38.433498,28.763437 38.564972,28.011358 
	C39.410271,23.175932 39.472458,23.186804 34.500000,23.000000 
"/>
<path fill="none" opacity="1.000000" stroke="#000000" stroke-linecap="round" stroke-linejoin="round" stroke-width="3.000000"
	d="
M56.500000,23.000000 
	C53.096596,23.032866 49.648502,22.613634 46.478107,24.462458 
	C45.685760,24.924520 44.885777,24.395115 44.500000,23.500000 
"/>
<path fill="none" opacity="1.000000" stroke="#000000" stroke-linecap="round" stroke-linejoin="round" stroke-width="3.000000"
	d="
M141.500000,23.000000 
	C138.601517,23.989777 139.991135,27.480938 138.000000,29.000000 
"/>
<path fill="none" opacity="1.000000" stroke="#000000" stroke-linecap="round" stroke-linejoin="round" stroke-width="4.000000"
	d="
M23.500000,30.500000 
	C23.500000,29.666666 23.501240,28.833332 23.499800,28.000000 
	C23.490162,22.423145 23.489977,22.423145 17.500000,24.143612 
	C17.500000,26.141859 17.500000,28.320930 17.500000,30.500000 
"/>
<path fill="none" opacity="1.000000" stroke="#000000" stroke-linecap="round" stroke-linejoin="round" stroke-width="3.000000"
	d="
M144.500000,30.499998 
	C146.500000,30.666666 148.500000,30.833332 150.500000,30.999998 
"/>
<path fill="none" opacity="1.000000" stroke="#000000" stroke-linecap="round" stroke-linejoin="round" stroke-width="3.000000"
	d="
M168.000000,22.500000 
	C166.693863,23.705730 165.582550,25.788118 163.500000,23.500000 
"/>
<path fill="none" opacity="1.000000" stroke="#000000" stroke-linecap="round" stroke-linejoin="round" stroke-width="2.000000"
	d="
M3.500000,68.500000 
	C1.216912,70.554794 2.737425,73.180023 2.579327,75.505394 
	C2.297347,79.652885 2.500000,83.833336 2.500000,88.250000 
	C263.333130,88.250000 524.166565,88.250000 785.250000,88.250000 
	C785.250000,82.008545 785.250000,75.504272 785.250000,68.500000 
	C525.000183,68.500000 264.500092,68.500000 4.000000,68.500000 
"/>
<path fill="none" opacity="1.000000" stroke="#000000" stroke-linecap="round" stroke-linejoin="round" stroke-width="2.000000"
	d="
M116.500000,272.500000 
	C114.101929,276.153778 116.362343,280.212677 115.216141,284.250000 
	C119.318848,284.250000 123.159424,284.250000 127.250000,284.250000 
	C127.250000,280.681152 127.250000,276.840576 127.250000,272.500000 
	C124.015862,272.500000 120.507935,272.500000 117.000000,272.500000 
"/>
</svg>